<svg width="48" height="37" viewBox="0 0 48 37" fill="none" xmlns="http://www.w3.org/2000/svg">
<path d="M8.90313 28.0968C20.1935 33.742 26.9676 33.742 38.258 28.0968" stroke="white" stroke-width="2.5" stroke-linecap="round" stroke-linejoin="round"/>
<path d="M31.4838 31.4839L33.7418 36C33.7418 36 43.1609 33.0006 46.1612 28.0968C46.1612 25.8387 47.3582 9.7012 39.387 4.3871C35.9999 2.12903 30.3547 1 30.3547 1L28.0967 5.51613H23.5805" stroke="white" stroke-width="2.5" stroke-linecap="round" stroke-linejoin="round"/>
<path d="M15.7413 31.4839L13.4832 36C13.4832 36 4.06407 33.0006 1.06385 28.0968C1.06385 25.8387 -0.133127 9.7012 7.83804 4.3871C11.2251 2.12903 16.8703 1 16.8703 1L19.1283 5.51613H23.6445" stroke="white" stroke-width="2.5" stroke-linecap="round" stroke-linejoin="round"/>
<path d="M15.6773 23.5807C13.8067 23.5807 12.2902 21.5588 12.2902 19.0645C12.2902 16.5703 13.8067 14.5484 15.6773 14.5484C17.548 14.5484 19.0644 16.5703 19.0644 19.0645C19.0644 21.5588 17.548 23.5807 15.6773 23.5807Z" stroke="white" stroke-width="2.5" stroke-linecap="round" stroke-linejoin="round"/>
<path d="M31.4838 23.5807C29.6132 23.5807 28.0967 21.5588 28.0967 19.0645C28.0967 16.5703 29.6132 14.5484 31.4838 14.5484C33.3543 14.5484 34.8709 16.5703 34.8709 19.0645C34.8709 21.5588 33.3543 23.5807 31.4838 23.5807Z" stroke="white" stroke-width="2.5" stroke-linecap="round" stroke-linejoin="round"/>
</svg>
