<svg width="56" height="29" viewBox="0 0 56 29" fill="none" xmlns="http://www.w3.org/2000/svg">
<path d="M33.1161 14.3753C33.1161 7.70664 26.915 1 19.352 1C18.4562 1 15.5032 1.00003 14.764 1.00003C7.16238 1.00003 1 6.98837 1 14.3753C1 20.7407 5.57582 26.0677 11.7054 27.4192C12.6891 27.6363 13.7128 27.7506 14.764 27.7506" stroke="white" stroke-width="3" stroke-linecap="round" stroke-linejoin="round"/>
<path d="M22.4107 14.3753C22.4107 21.044 28.6118 27.7506 36.1749 27.7506C37.0707 27.7506 40.0237 27.7506 40.7627 27.7506C48.3645 27.7506 54.5268 21.7623 54.5268 14.3753C54.5268 8.0099 49.9511 2.68302 43.8215 1.33144C42.8376 1.11452 41.8139 1 40.7627 1" stroke="white" stroke-width="3" stroke-linecap="round" stroke-linejoin="round"/>
</svg>
