<svg width="94" height="69" viewBox="0 0 94 69" fill="none" xmlns="http://www.w3.org/2000/svg">
<path d="M55.768 34.6298L40.669 43.2578V26.0018L55.768 34.6298Z" fill="white" stroke="white" stroke-width="6.471" stroke-linecap="round" stroke-linejoin="round"/>
<path d="M4 37.682V31.5772C4 19.0867 4 12.8415 7.90628 8.82314C11.8126 4.80478 17.9625 4.63084 30.2623 4.28295C36.0907 4.11812 42.0443 4 47.14 4C52.2357 4 58.1895 4.11812 64.0177 4.28295C76.3173 4.63084 82.4673 4.80478 86.3737 8.82314C90.28 12.8415 90.28 19.0867 90.28 31.5772V37.682C90.28 50.1723 90.28 56.4177 86.3737 60.4357C82.4673 64.4542 76.3177 64.6281 64.0181 64.9762C58.1895 65.141 52.2357 65.2592 47.14 65.2592C42.0443 65.2592 36.0904 65.141 30.2619 64.9762C17.9623 64.6281 11.8125 64.4542 7.90624 60.4357C4 56.4177 4 50.1723 4 37.682Z" stroke="white" stroke-width="6.471"/>
</svg>
