<svg width="309" height="141" viewBox="0 0 309 141" fill="none" xmlns="http://www.w3.org/2000/svg">
<mask id="path-1-outside-1_19003_20" maskUnits="userSpaceOnUse" x="32" y="29" width="248" height="98" fill="black">
<rect fill="white" x="32" y="29" width="248" height="98"/>
<path d="M74.9091 30.9091H86.1818V97.4545C86.1818 103.394 85.0909 108.439 82.9091 112.591C80.7273 116.742 77.6515 119.894 73.6818 122.045C69.7121 124.197 65.0303 125.273 59.6364 125.273C54.5455 125.273 50.0152 124.348 46.0455 122.5C42.0758 120.621 38.9545 117.955 36.6818 114.5C34.4091 111.045 33.2727 106.939 33.2727 102.182H44.3636C44.3636 104.818 45.0152 107.121 46.3182 109.091C47.6515 111.03 49.4697 112.545 51.7727 113.636C54.0758 114.727 56.697 115.273 59.6364 115.273C62.8788 115.273 65.6364 114.591 67.9091 113.227C70.1818 111.864 71.9091 109.864 73.0909 107.227C74.303 104.561 74.9091 101.303 74.9091 97.4545V30.9091ZM182.591 30.9091V124H171.682L120.955 50.9091H120.045V124H108.773V30.9091H119.682L170.591 104.182H171.5V30.9091H182.591ZM278.966 30.9091V124H268.057L217.33 50.9091H216.42V124H205.148V30.9091H216.057L266.966 104.182H267.875V30.9091H278.966Z"/>
</mask>
<path d="M74.9091 30.9091V29.9091H73.9091V30.9091H74.9091ZM86.1818 30.9091H87.1818V29.9091H86.1818V30.9091ZM82.9091 112.591L83.7943 113.056L83.7943 113.056L82.9091 112.591ZM73.6818 122.045L74.1583 122.925L74.1583 122.925L73.6818 122.045ZM46.0455 122.5L45.6177 123.404L45.6233 123.407L46.0455 122.5ZM36.6818 114.5L35.8464 115.05L35.8464 115.05L36.6818 114.5ZM33.2727 102.182V101.182H32.2727V102.182H33.2727ZM44.3636 102.182H45.3636V101.182H44.3636V102.182ZM46.3182 109.091L45.4842 109.643L45.4891 109.65L45.4941 109.657L46.3182 109.091ZM51.7727 113.636L52.2008 112.733L52.2008 112.733L51.7727 113.636ZM67.9091 113.227L67.3946 112.37L67.3946 112.37L67.9091 113.227ZM73.0909 107.227L72.1805 106.813L72.1784 106.818L73.0909 107.227ZM74.9091 30.9091V31.9091H86.1818V30.9091V29.9091H74.9091V30.9091ZM86.1818 30.9091H85.1818V97.4545H86.1818H87.1818V30.9091H86.1818ZM86.1818 97.4545H85.1818C85.1818 103.274 84.1129 108.151 82.0239 112.126L82.9091 112.591L83.7943 113.056C86.0689 108.728 87.1818 103.514 87.1818 97.4545H86.1818ZM82.9091 112.591L82.0239 112.126C79.9305 116.109 76.9938 119.113 73.2053 121.166L73.6818 122.045L74.1583 122.925C78.3093 120.675 81.524 117.376 83.7943 113.056L82.9091 112.591ZM73.6818 122.045L73.2053 121.166C69.4079 123.224 64.8962 124.273 59.6364 124.273V125.273V126.273C65.1644 126.273 70.0163 125.17 74.1583 122.925L73.6818 122.045ZM59.6364 125.273V124.273C54.6677 124.273 50.2852 123.371 46.4676 121.593L46.0455 122.5L45.6233 123.407C49.7451 125.326 54.4232 126.273 59.6364 126.273V125.273ZM46.0455 122.5L46.4732 121.596C42.6586 119.791 39.6828 117.242 37.5172 113.95L36.6818 114.5L35.8464 115.05C38.2263 118.667 41.4929 121.452 45.6177 123.404L46.0455 122.5ZM36.6818 114.5L37.5172 113.95C35.3673 110.683 34.2727 106.774 34.2727 102.182H33.2727H32.2727C32.2727 107.105 33.4508 111.408 35.8464 115.05L36.6818 114.5ZM33.2727 102.182V103.182H44.3636V102.182V101.182H33.2727V102.182ZM44.3636 102.182H43.3636C43.3636 104.991 44.0605 107.491 45.4842 109.643L46.3182 109.091L47.1522 108.539C45.9698 106.752 45.3636 104.646 45.3636 102.182H44.3636ZM46.3182 109.091L45.4941 109.657C46.9356 111.754 48.8958 113.38 51.3446 114.54L51.7727 113.636L52.2008 112.733C50.0436 111.711 48.3674 110.306 47.1422 108.524L46.3182 109.091ZM51.7727 113.636L51.3446 114.54C53.8006 115.703 56.5716 116.273 59.6364 116.273V115.273V114.273C56.8224 114.273 54.351 113.751 52.2008 112.733L51.7727 113.636ZM59.6364 115.273V116.273C63.0196 116.273 65.9641 115.56 68.4236 114.085L67.9091 113.227L67.3946 112.37C65.3086 113.621 62.738 114.273 59.6364 114.273V115.273ZM67.9091 113.227L68.4236 114.085C70.8876 112.606 72.7458 110.442 74.0034 107.636L73.0909 107.227L72.1784 106.818C71.0724 109.286 69.476 111.121 67.3946 112.37L67.9091 113.227ZM73.0909 107.227L74.0013 107.641C75.2879 104.81 75.9091 101.403 75.9091 97.4545H74.9091H73.9091C73.9091 101.203 73.3181 104.311 72.1805 106.813L73.0909 107.227ZM74.9091 97.4545H75.9091V30.9091H74.9091H73.9091V97.4545H74.9091ZM182.591 30.9091H183.591V29.9091H182.591V30.9091ZM182.591 124V125H183.591V124H182.591ZM171.682 124L170.86 124.57L171.159 125H171.682V124ZM120.955 50.9091L121.776 50.3389L121.478 49.9091H120.955V50.9091ZM120.045 50.9091V49.9091H119.045V50.9091H120.045ZM120.045 124V125H121.045V124H120.045ZM108.773 124H107.773V125H108.773V124ZM108.773 30.9091V29.9091H107.773V30.9091H108.773ZM119.682 30.9091L120.503 30.3385L120.205 29.9091H119.682V30.9091ZM170.591 104.182L169.77 104.752L170.068 105.182H170.591V104.182ZM171.5 104.182V105.182H172.5V104.182H171.5ZM171.5 30.9091V29.9091H170.5V30.9091H171.5ZM182.591 30.9091H181.591V124H182.591H183.591V30.9091H182.591ZM182.591 124V123H171.682V124V125H182.591V124ZM171.682 124L172.503 123.43L121.776 50.3389L120.955 50.9091L120.133 51.4793L170.86 124.57L171.682 124ZM120.955 50.9091V49.9091H120.045V50.9091V51.9091H120.955V50.9091ZM120.045 50.9091H119.045V124H120.045H121.045V50.9091H120.045ZM120.045 124V123H108.773V124V125H120.045V124ZM108.773 124H109.773V30.9091H108.773H107.773V124H108.773ZM108.773 30.9091V31.9091H119.682V30.9091V29.9091H108.773V30.9091ZM119.682 30.9091L118.861 31.4797L169.77 104.752L170.591 104.182L171.412 103.611L120.503 30.3385L119.682 30.9091ZM170.591 104.182V105.182H171.5V104.182V103.182H170.591V104.182ZM171.5 104.182H172.5V30.9091H171.5H170.5V104.182H171.5ZM171.5 30.9091V31.9091H182.591V30.9091V29.9091H171.5V30.9091ZM278.966 30.9091H279.966V29.9091H278.966V30.9091ZM278.966 124V125H279.966V124H278.966ZM268.057 124L267.235 124.57L267.534 125H268.057V124ZM217.33 50.9091L218.151 50.3389L217.853 49.9091H217.33V50.9091ZM216.42 50.9091V49.9091H215.42V50.9091H216.42ZM216.42 124V125H217.42V124H216.42ZM205.148 124H204.148V125H205.148V124ZM205.148 30.9091V29.9091H204.148V30.9091H205.148ZM216.057 30.9091L216.878 30.3385L216.58 29.9091H216.057V30.9091ZM266.966 104.182L266.145 104.752L266.443 105.182H266.966V104.182ZM267.875 104.182V105.182H268.875V104.182H267.875ZM267.875 30.9091V29.9091H266.875V30.9091H267.875ZM278.966 30.9091H277.966V124H278.966H279.966V30.9091H278.966ZM278.966 124V123H268.057V124V125H278.966V124ZM268.057 124L268.878 123.43L218.151 50.3389L217.33 50.9091L216.508 51.4793L267.235 124.57L268.057 124ZM217.33 50.9091V49.9091H216.42V50.9091V51.9091H217.33V50.9091ZM216.42 50.9091H215.42V124H216.42H217.42V50.9091H216.42ZM216.42 124V123H205.148V124V125H216.42V124ZM205.148 124H206.148V30.9091H205.148H204.148V124H205.148ZM205.148 30.9091V31.9091H216.057V30.9091V29.9091H205.148V30.9091ZM216.057 30.9091L215.236 31.4797L266.145 104.752L266.966 104.182L267.787 103.611L216.878 30.3385L216.057 30.9091ZM266.966 104.182V105.182H267.875V104.182V103.182H266.966V104.182ZM267.875 104.182H268.875V30.9091H267.875H266.875V104.182H267.875ZM267.875 30.9091V31.9091H278.966V30.9091V29.9091H267.875V30.9091Z" fill="#181C37" mask="url(#path-1-outside-1_19003_20)"/>
<mask id="path-3-outside-2_19003_20" maskUnits="userSpaceOnUse" x="35" y="29" width="248" height="98" fill="black">
<rect fill="white" x="35" y="29" width="248" height="98"/>
<path d="M77.9091 30.9091H89.1818V97.4545C89.1818 103.394 88.0909 108.439 85.9091 112.591C83.7273 116.742 80.6515 119.894 76.6818 122.045C72.7121 124.197 68.0303 125.273 62.6364 125.273C57.5455 125.273 53.0152 124.348 49.0455 122.5C45.0758 120.621 41.9545 117.955 39.6818 114.5C37.4091 111.045 36.2727 106.939 36.2727 102.182H47.3636C47.3636 104.818 48.0152 107.121 49.3182 109.091C50.6515 111.03 52.4697 112.545 54.7727 113.636C57.0758 114.727 59.697 115.273 62.6364 115.273C65.8788 115.273 68.6364 114.591 70.9091 113.227C73.1818 111.864 74.9091 109.864 76.0909 107.227C77.303 104.561 77.9091 101.303 77.9091 97.4545V30.9091ZM185.591 30.9091V124H174.682L123.955 50.9091H123.045V124H111.773V30.9091H122.682L173.591 104.182H174.5V30.9091H185.591ZM281.966 30.9091V124H271.057L220.33 50.9091H219.42V124H208.148V30.9091H219.057L269.966 104.182H270.875V30.9091H281.966Z"/>
</mask>
<path d="M77.9091 30.9091V29.9091H76.9091V30.9091H77.9091ZM89.1818 30.9091H90.1818V29.9091H89.1818V30.9091ZM85.9091 112.591L86.7943 113.056L86.7943 113.056L85.9091 112.591ZM76.6818 122.045L77.1583 122.925L77.1583 122.925L76.6818 122.045ZM49.0455 122.5L48.6177 123.404L48.6233 123.407L49.0455 122.5ZM39.6818 114.5L38.8464 115.05L38.8464 115.05L39.6818 114.5ZM36.2727 102.182V101.182H35.2727V102.182H36.2727ZM47.3636 102.182H48.3636V101.182H47.3636V102.182ZM49.3182 109.091L48.4842 109.643L48.4891 109.65L48.4941 109.657L49.3182 109.091ZM54.7727 113.636L55.2008 112.733L55.2008 112.733L54.7727 113.636ZM70.9091 113.227L70.3946 112.37L70.3946 112.37L70.9091 113.227ZM76.0909 107.227L75.1805 106.813L75.1784 106.818L76.0909 107.227ZM77.9091 30.9091V31.9091H89.1818V30.9091V29.9091H77.9091V30.9091ZM89.1818 30.9091H88.1818V97.4545H89.1818H90.1818V30.9091H89.1818ZM89.1818 97.4545H88.1818C88.1818 103.274 87.1129 108.151 85.0239 112.126L85.9091 112.591L86.7943 113.056C89.0689 108.728 90.1818 103.514 90.1818 97.4545H89.1818ZM85.9091 112.591L85.0239 112.126C82.9305 116.109 79.9938 119.113 76.2053 121.166L76.6818 122.045L77.1583 122.925C81.3093 120.675 84.524 117.376 86.7943 113.056L85.9091 112.591ZM76.6818 122.045L76.2053 121.166C72.4079 123.224 67.8962 124.273 62.6364 124.273V125.273V126.273C68.1644 126.273 73.0163 125.17 77.1583 122.925L76.6818 122.045ZM62.6364 125.273V124.273C57.6677 124.273 53.2852 123.371 49.4676 121.593L49.0455 122.5L48.6233 123.407C52.7451 125.326 57.4232 126.273 62.6364 126.273V125.273ZM49.0455 122.5L49.4732 121.596C45.6586 119.791 42.6828 117.242 40.5172 113.95L39.6818 114.5L38.8464 115.05C41.2263 118.667 44.4929 121.452 48.6177 123.404L49.0455 122.5ZM39.6818 114.5L40.5172 113.95C38.3673 110.683 37.2727 106.774 37.2727 102.182H36.2727H35.2727C35.2727 107.105 36.4508 111.408 38.8464 115.05L39.6818 114.5ZM36.2727 102.182V103.182H47.3636V102.182V101.182H36.2727V102.182ZM47.3636 102.182H46.3636C46.3636 104.991 47.0605 107.491 48.4842 109.643L49.3182 109.091L50.1522 108.539C48.9698 106.752 48.3636 104.646 48.3636 102.182H47.3636ZM49.3182 109.091L48.4941 109.657C49.9356 111.754 51.8958 113.38 54.3446 114.54L54.7727 113.636L55.2008 112.733C53.0436 111.711 51.3674 110.306 50.1422 108.524L49.3182 109.091ZM54.7727 113.636L54.3446 114.54C56.8006 115.703 59.5716 116.273 62.6364 116.273V115.273V114.273C59.8224 114.273 57.351 113.751 55.2008 112.733L54.7727 113.636ZM62.6364 115.273V116.273C66.0196 116.273 68.9641 115.56 71.4236 114.085L70.9091 113.227L70.3946 112.37C68.3086 113.621 65.738 114.273 62.6364 114.273V115.273ZM70.9091 113.227L71.4236 114.085C73.8876 112.606 75.7458 110.442 77.0034 107.636L76.0909 107.227L75.1784 106.818C74.0724 109.286 72.476 111.121 70.3946 112.37L70.9091 113.227ZM76.0909 107.227L77.0013 107.641C78.2879 104.81 78.9091 101.403 78.9091 97.4545H77.9091H76.9091C76.9091 101.203 76.3181 104.311 75.1805 106.813L76.0909 107.227ZM77.9091 97.4545H78.9091V30.9091H77.9091H76.9091V97.4545H77.9091ZM185.591 30.9091H186.591V29.9091H185.591V30.9091ZM185.591 124V125H186.591V124H185.591ZM174.682 124L173.86 124.57L174.159 125H174.682V124ZM123.955 50.9091L124.776 50.3389L124.478 49.9091H123.955V50.9091ZM123.045 50.9091V49.9091H122.045V50.9091H123.045ZM123.045 124V125H124.045V124H123.045ZM111.773 124H110.773V125H111.773V124ZM111.773 30.9091V29.9091H110.773V30.9091H111.773ZM122.682 30.9091L123.503 30.3385L123.205 29.9091H122.682V30.9091ZM173.591 104.182L172.77 104.752L173.068 105.182H173.591V104.182ZM174.5 104.182V105.182H175.5V104.182H174.5ZM174.5 30.9091V29.9091H173.5V30.9091H174.5ZM185.591 30.9091H184.591V124H185.591H186.591V30.9091H185.591ZM185.591 124V123H174.682V124V125H185.591V124ZM174.682 124L175.503 123.43L124.776 50.3389L123.955 50.9091L123.133 51.4793L173.86 124.57L174.682 124ZM123.955 50.9091V49.9091H123.045V50.9091V51.9091H123.955V50.9091ZM123.045 50.9091H122.045V124H123.045H124.045V50.9091H123.045ZM123.045 124V123H111.773V124V125H123.045V124ZM111.773 124H112.773V30.9091H111.773H110.773V124H111.773ZM111.773 30.9091V31.9091H122.682V30.9091V29.9091H111.773V30.9091ZM122.682 30.9091L121.861 31.4797L172.77 104.752L173.591 104.182L174.412 103.611L123.503 30.3385L122.682 30.9091ZM173.591 104.182V105.182H174.5V104.182V103.182H173.591V104.182ZM174.5 104.182H175.5V30.9091H174.5H173.5V104.182H174.5ZM174.5 30.9091V31.9091H185.591V30.9091V29.9091H174.5V30.9091ZM281.966 30.9091H282.966V29.9091H281.966V30.9091ZM281.966 124V125H282.966V124H281.966ZM271.057 124L270.235 124.57L270.534 125H271.057V124ZM220.33 50.9091L221.151 50.3389L220.853 49.9091H220.33V50.9091ZM219.42 50.9091V49.9091H218.42V50.9091H219.42ZM219.42 124V125H220.42V124H219.42ZM208.148 124H207.148V125H208.148V124ZM208.148 30.9091V29.9091H207.148V30.9091H208.148ZM219.057 30.9091L219.878 30.3385L219.58 29.9091H219.057V30.9091ZM269.966 104.182L269.145 104.752L269.443 105.182H269.966V104.182ZM270.875 104.182V105.182H271.875V104.182H270.875ZM270.875 30.9091V29.9091H269.875V30.9091H270.875ZM281.966 30.9091H280.966V124H281.966H282.966V30.9091H281.966ZM281.966 124V123H271.057V124V125H281.966V124ZM271.057 124L271.878 123.43L221.151 50.3389L220.33 50.9091L219.508 51.4793L270.235 124.57L271.057 124ZM220.33 50.9091V49.9091H219.42V50.9091V51.9091H220.33V50.9091ZM219.42 50.9091H218.42V124H219.42H220.42V50.9091H219.42ZM219.42 124V123H208.148V124V125H219.42V124ZM208.148 124H209.148V30.9091H208.148H207.148V124H208.148ZM208.148 30.9091V31.9091H219.057V30.9091V29.9091H208.148V30.9091ZM219.057 30.9091L218.236 31.4797L269.145 104.752L269.966 104.182L270.787 103.611L219.878 30.3385L219.057 30.9091ZM269.966 104.182V105.182H270.875V104.182V103.182H269.966V104.182ZM270.875 104.182H271.875V30.9091H270.875H269.875V104.182H270.875ZM270.875 30.9091V31.9091H281.966V30.9091V29.9091H270.875V30.9091Z" fill="#181C37" mask="url(#path-3-outside-2_19003_20)"/>
<rect y="22" width="15" height="109" fill="#181C37"/>
</svg>
